# xmcd
#
# Track frame offsets: 
#        150
#        23000
#        47500
#        67750
#        93650
#        114988
#        137463
#        158300
#        177813
#        197900
#
# Disc length: 3015 seconds
#
# Revision: 0
# Processed by: cddbd v1.5.2PL0 Copyright (c) Steve Scherf et al.
# Submitted via: ExactAudioCopy v1.0b3
#
DISCID=6f0bc50a
DTITLE=My Huyen - TK Hoc Sinh Sinh Vien 4
DYEAR=1994
DGENRE=
TTITLE0=Truong cu tinh xua
TTITLE1=Luu but ngay xanh
TTITLE2=Gia biet truong xua
TTITLE3=Phuong yeu
TTITLE4=Noi buon hoa phuong
TTITLE5=Co nu sinh Dong Khanh
TTITLE6=Tinh khuc Trung Vuong
TTITLE7=Tinh khuc Gia Long
TTITLE8=Ngay xua Hoang Thi
TTITLE9=Nhung giot nuoc mat mau tim
EXTD=
EXTT0=
EXTT1=
EXTT2=
EXTT3=
EXTT4=
EXTT5=
EXTT6=
EXTT7=
EXTT8=
EXTT9=
PLAYORDER=
